<?xml version="1.0"?>
<svg xmlns="http://www.w3.org/2000/svg" xmlns:xlink="http://www.w3.org/1999/xlink" version="1.1" id="Layer_1" x="0px" y="0px" viewBox="0 0 512.013 512.013" style="enable-background:new 0 0 512.013 512.013;" xml:space="preserve" width="512px" height="512px"><g><g>
	<g>
		<path d="M508.885,205.799l-42.667-42.667c-2.005-1.963-4.715-3.115-7.552-3.115H448v-10.667c0-2.837-1.109-5.547-3.115-7.552    l-85.333-85.333C342.421,39.356,313.771,10.684,256,10.684c-57.749,0-84.224,26.453-103.552,45.781    c-3.029,3.051-3.947,7.659-2.304,11.648c1.643,3.968,5.547,6.571,9.856,6.571c86.037,0,96,36.523,96,64    c0,33.195-27.627,55.381-27.925,55.595c-0.171,0.149-0.256,0.363-0.427,0.512c-0.171,0.149-0.363,0.192-0.512,0.341    L16.128,406.119C5.739,416.508,0,430.353,0,446.289c0,30.357,24.683,55.04,55.04,55.04c15.467,0,30.315-6.571,40.747-18.005    l199.403-219.328c28.757-21.397,57.429-34.432,67.477-33.557v14.912c0,2.837,1.131,5.547,3.115,7.552l53.333,53.333    c2.005,1.963,4.715,3.115,7.552,3.115c0.128,0,0.235,0,0.363,0c2.944-0.085,5.717-1.408,7.659-3.627l74.667-85.333    C513.067,216.145,512.875,209.788,508.885,205.799z M79.979,468.967c-6.379,7.04-15.467,11.051-24.939,11.051    c-18.581,0-33.707-15.147-33.707-34.987c0-9.003,3.499-17.472,9.877-23.829l203.456-203.456l38.613,38.613L79.979,468.967z     M426.155,283.068L384,240.913v-16.896c0-2.837-1.131-5.547-3.115-7.552c-20.139-20.139-66.453,7.616-91.776,25.557    l-39.125-39.125c10.709-11.328,27.349-33.835,27.349-64.213c0-49.941-30.699-78.165-91.371-84.139    C201.536,42.129,222.037,32.017,256,32.017c48.939,0,72.704,23.787,88.448,39.531l82.219,82.197v16.939    c0,5.888,4.779,10.667,10.667,10.667h16.917l32.491,32.491L426.155,283.068z" data-original="#000000" class="active-path" data-old_color="#000000" fill="#31343A"/>
	</g>
</g><script xmlns="" class="active-path" style=""/></g> </svg>
