<?xml version="1.0" encoding="UTF-8" ?>
<!DOCTYPE svg PUBLIC "-//W3C//DTD SVG 1.1//EN" "http://www.w3.org/Graphics/SVG/1.1/DTD/svg11.dtd">
<svg width="187pt" height="60pt" viewBox="0 0 187 60" version="1.1" xmlns="http://www.w3.org/2000/svg">
<g id="#ffffffff">
</g>
<g id="#435b7eff">
<path fill="#435b7e" opacity="1.00" d=" M 4.18 21.13 C 7.33 9.82 19.42 2.36 30.96 4.16 L 30.73 4.74 C 30.51 5.31 30.06 6.45 29.84 7.02 C 28.24 6.96 26.64 6.90 25.04 6.85 C 25.09 8.84 25.01 10.85 25.31 12.83 C 25.96 15.00 28.50 15.57 30.19 16.66 C 29.74 17.84 29.24 19.04 28.05 19.67 C 26.80 18.34 25.77 16.83 24.59 15.44 C 23.00 16.09 21.74 17.29 20.43 18.35 C 24.93 22.31 22.76 28.65 23.18 33.87 C 27.43 34.11 31.67 33.71 35.88 33.14 C 37.48 34.18 36.18 35.63 35.65 36.87 C 31.03 35.35 26.13 35.69 21.34 35.71 C 21.20 31.22 21.84 26.65 21.00 22.22 C 18.42 18.44 15.00 15.29 11.70 12.15 C 11.70 13.36 10.96 14.84 12.13 15.77 C 14.31 18.61 17.48 20.68 19.16 23.89 C 19.64 28.12 19.25 32.38 19.32 36.62 C 16.45 36.60 13.57 36.57 10.69 36.54 C 10.78 34.99 10.86 33.43 10.95 31.87 C 9.29 31.78 7.63 31.70 5.97 31.61 C 7.41 39.41 13.22 45.83 20.67 48.38 C 20.75 49.02 20.92 50.30 21.00 50.94 C 8.10 48.53 0.13 33.38 4.18 21.13 M 13.80 11.17 C 15.45 13.28 17.25 15.25 19.13 17.16 C 20.53 15.88 22.30 14.83 23.17 13.09 C 23.41 11.12 23.33 9.12 23.34 7.14 C 19.93 7.88 16.79 9.41 13.80 11.17 M 5.61 30.26 C 7.95 30.21 10.29 30.17 12.62 30.13 C 12.61 31.70 12.59 33.27 12.58 34.84 C 14.22 34.83 15.86 34.83 17.50 34.83 C 17.55 31.22 17.55 27.62 17.54 24.01 C 16.43 22.93 15.31 21.88 14.19 20.82 C 12.40 23.06 11.84 27.43 8.16 26.90 C 7.83 24.85 8.74 23.27 10.87 22.99 C 11.66 21.78 12.43 20.55 13.19 19.32 C 12.04 18.14 10.89 16.95 9.74 15.76 C 6.69 19.95 5.50 25.14 5.61 30.26 Z" />
<path fill="#435b7e" opacity="1.00" d=" M 31.27 5.59 C 32.51 5.16 34.12 3.04 35.47 4.48 C 38.70 7.30 42.78 9.08 45.49 12.50 C 52.22 20.10 53.11 32.10 47.69 40.66 C 42.73 49.00 32.49 53.50 22.97 51.79 L 23.28 51.24 C 23.55 50.74 24.10 49.73 24.38 49.23 C 26.63 49.16 28.87 49.09 31.12 48.99 C 29.98 47.76 28.85 46.53 27.72 45.31 C 25.62 45.32 23.52 45.33 21.42 45.34 C 21.39 44.57 21.34 43.03 21.32 42.26 C 19.16 42.25 16.31 44.21 14.73 42.11 C 14.92 41.47 15.29 40.20 15.48 39.57 C 17.41 40.03 19.35 40.48 21.30 40.90 C 21.33 40.09 21.41 38.47 21.44 37.66 C 25.06 37.67 28.68 37.64 32.29 37.67 C 34.15 39.42 36.22 40.91 38.36 42.29 C 37.51 43.29 36.49 44.02 35.29 44.49 C 34.10 42.98 33.14 41.31 31.85 39.89 C 29.00 39.27 26.06 39.56 23.18 39.57 C 23.17 40.53 23.16 42.46 23.15 43.42 C 24.98 43.43 26.81 43.43 28.65 43.44 C 30.16 45.11 31.68 46.78 33.19 48.45 C 36.51 47.11 39.55 45.22 42.34 42.99 C 41.10 41.66 39.87 40.34 38.63 39.03 C 38.62 36.16 38.61 33.29 38.60 30.43 C 37.70 29.48 36.80 28.54 35.89 27.60 C 32.93 30.08 28.90 30.68 25.16 30.47 C 23.49 30.36 24.11 26.85 25.83 27.48 C 27.87 27.55 29.91 28.16 31.95 27.83 C 34.12 26.65 36.14 24.94 37.41 22.80 C 37.83 20.39 37.63 17.93 37.63 15.50 C 36.29 15.51 34.95 15.52 33.61 15.53 C 33.95 17.64 34.44 19.74 34.55 21.89 C 34.38 23.65 31.62 23.67 31.22 22.03 C 31.51 19.17 32.00 16.33 32.18 13.46 C 33.97 13.51 35.76 13.56 37.55 13.61 C 37.59 12.65 37.67 10.73 37.71 9.77 C 35.14 9.08 32.26 8.42 31.27 5.59 M 39.72 11.12 C 39.64 15.62 39.66 20.12 39.73 24.62 C 39.10 24.96 37.84 25.65 37.20 25.99 C 39.14 27.89 41.09 29.98 40.85 32.92 C 42.15 32.47 43.49 31.66 44.91 32.15 C 45.91 33.62 44.94 34.92 44.09 36.13 C 42.91 35.63 41.73 35.14 40.55 34.65 C 40.07 37.45 41.74 39.61 43.72 41.33 C 48.34 35.10 49.49 26.68 46.49 19.49 C 45.98 19.49 44.95 19.47 44.44 19.46 C 44.29 22.30 44.77 25.09 45.19 27.88 C 44.94 29.79 40.92 29.33 41.83 27.16 C 42.44 24.01 42.62 20.81 42.49 17.61 C 43.10 17.51 44.32 17.31 44.93 17.21 C 43.95 14.63 41.71 12.90 39.72 11.12 Z" />
<path fill="#435b7e" opacity="1.00" d=" M 79.21 15.85 C 81.14 15.87 83.08 15.87 85.01 15.75 C 83.49 16.37 81.94 17.23 81.64 19.03 C 79.63 25.25 77.64 31.49 75.89 37.79 C 73.54 31.95 71.91 25.83 69.27 20.10 C 67.53 26.17 65.09 32.03 63.71 38.20 C 61.96 32.46 59.77 26.87 57.87 21.18 C 57.27 19.29 56.31 17.53 55.03 16.01 C 56.25 16.08 57.48 16.13 58.70 16.18 C 59.50 22.00 62.35 27.28 63.15 33.10 C 66.92 28.16 67.01 21.34 69.89 15.86 C 72.03 21.25 73.78 26.78 75.82 32.21 C 77.16 31.03 77.35 29.20 77.83 27.58 C 78.75 23.97 79.93 20.43 80.70 16.78 C 80.33 16.55 79.58 16.08 79.21 15.85 Z" />
<path fill="#435b7e" opacity="1.00" d=" M 122.14 16.06 C 123.43 16.10 124.72 16.14 126.01 16.16 C 125.68 16.58 125.03 17.41 124.70 17.82 C 124.68 24.86 124.89 31.91 124.63 38.95 C 124.59 41.68 122.02 43.23 119.90 44.39 C 121.20 42.44 122.99 40.57 123.10 38.08 C 123.38 32.71 123.10 27.32 123.24 21.94 C 123.37 19.91 122.95 17.92 122.14 16.06 Z" />
<path fill="#435b7e" opacity="1.00" d=" M 86.02 19.26 C 90.08 19.21 94.14 19.12 98.19 18.73 C 98.18 19.81 98.17 20.89 98.15 21.97 C 97.86 21.22 97.56 20.48 97.27 19.74 C 94.71 19.83 92.15 19.92 89.60 20.00 C 89.60 22.73 89.60 25.46 89.61 28.19 C 92.03 28.14 94.46 27.98 96.82 27.44 C 96.79 28.05 96.74 29.26 96.72 29.87 C 96.35 29.58 95.62 29.01 95.26 28.72 C 93.37 28.77 91.47 28.81 89.58 28.84 C 89.59 31.61 89.60 34.38 89.62 37.16 C 93.44 37.18 98.42 37.61 99.98 33.18 C 99.42 34.65 98.88 36.13 98.35 37.61 C 94.25 37.79 90.14 37.82 86.04 37.60 C 86.59 37.26 87.69 36.59 88.24 36.25 C 88.18 31.08 88.17 25.92 88.25 20.76 C 87.51 20.26 86.76 19.76 86.02 19.26 Z" />
<path fill="#435b7e" opacity="1.00" d=" M 138.60 18.81 C 141.80 18.27 145.32 19.02 147.73 21.26 C 152.11 24.67 152.07 32.33 147.66 35.69 C 142.18 40.82 131.27 37.80 130.34 30.00 C 129.13 24.69 133.50 19.62 138.60 18.81 M 137.19 20.10 C 132.36 22.14 131.16 28.42 133.12 32.86 C 134.86 36.40 139.19 38.36 142.99 37.18 C 148.35 35.72 150.71 28.71 148.06 24.02 C 146.31 19.98 141.10 18.34 137.19 20.10 Z" />
<path fill="#435b7e" opacity="1.00" d=" M 172.62 21.93 C 173.85 18.48 178.13 18.23 181.16 18.94 C 181.56 19.95 181.82 21.00 181.96 22.09 C 181.34 21.23 180.74 20.36 180.14 19.48 C 177.51 19.23 173.53 19.59 173.67 23.14 C 175.80 26.69 180.18 28.03 182.54 31.38 C 183.45 33.77 182.41 36.91 179.81 37.66 C 177.25 38.15 174.64 37.70 172.12 37.17 C 172.19 35.70 172.26 34.24 172.36 32.77 C 172.75 34.06 173.14 35.35 173.52 36.64 C 176.08 37.33 180.08 38.06 181.38 35.03 C 182.18 28.78 171.26 28.50 172.62 21.93 Z" />
<path fill="#435b7e" opacity="1.00" d=" M 102.93 19.17 C 106.76 19.54 111.76 18.02 114.59 21.37 C 115.46 23.88 114.59 26.43 112.30 27.79 C 115.83 28.26 118.15 31.97 116.31 35.21 C 113.06 39.05 107.43 37.47 103.05 37.67 C 103.46 37.40 104.27 36.86 104.68 36.59 C 104.71 31.16 104.73 25.73 104.67 20.31 C 104.24 20.02 103.36 19.45 102.93 19.17 M 106.51 19.75 C 106.49 25.59 106.47 31.42 106.53 37.25 C 109.31 36.85 113.36 37.71 114.76 34.51 C 115.72 32.96 114.63 31.18 114.44 29.57 C 112.30 28.64 110.07 27.98 107.82 27.40 C 108.98 27.41 110.14 27.43 111.31 27.45 C 112.65 26.00 114.03 24.13 113.04 22.06 C 112.08 19.40 108.68 20.26 106.51 19.75 Z" />
<path fill="#435b7e" opacity="1.00" d=" M 153.89 19.30 C 157.74 19.31 162.09 18.35 165.52 20.56 C 167.93 22.62 166.60 26.31 164.13 27.69 C 165.98 28.59 168.55 29.64 168.62 32.09 C 168.97 34.39 167.38 36.58 165.19 37.20 C 161.96 38.10 158.55 37.65 155.24 37.76 C 156.08 36.67 156.48 35.45 156.45 34.08 C 156.46 29.38 156.50 24.68 156.30 19.98 C 155.70 19.81 154.49 19.47 153.89 19.30 M 158.24 19.68 C 158.20 21.75 158.17 23.82 158.11 25.90 C 159.52 27.39 162.06 28.44 163.64 26.58 C 165.32 25.20 164.94 22.80 164.22 21.01 C 162.48 19.80 160.24 20.02 158.24 19.68 M 158.03 27.53 C 158.21 30.77 158.22 34.01 158.26 37.25 C 160.50 36.95 163.01 37.30 165.04 36.12 C 167.08 35.00 166.94 32.03 166.12 30.18 C 164.21 27.70 160.75 28.18 158.03 27.53 Z" />
</g>
<g id="#ccf7ffff">
<path fill="#ccf7ff" opacity="1.00" d=" M 30.73 4.74 L 31.27 5.59 C 32.26 8.42 35.14 9.08 37.71 9.77 C 37.67 10.73 37.59 12.65 37.55 13.61 C 35.76 13.56 33.97 13.51 32.18 13.46 C 32.00 16.33 31.51 19.17 31.22 22.03 C 31.62 23.67 34.38 23.65 34.55 21.89 C 34.44 19.74 33.95 17.64 33.61 15.53 C 34.95 15.52 36.29 15.51 37.63 15.50 C 37.63 17.93 37.83 20.39 37.41 22.80 C 36.14 24.94 34.12 26.65 31.95 27.83 C 29.91 28.16 27.87 27.55 25.83 27.48 C 24.11 26.85 23.49 30.36 25.16 30.47 C 28.90 30.68 32.93 30.08 35.89 27.60 C 36.80 28.54 37.70 29.48 38.60 30.43 C 38.61 33.29 38.62 36.16 38.63 39.03 C 39.87 40.34 41.10 41.66 42.34 42.99 C 39.55 45.22 36.51 47.11 33.19 48.45 C 31.68 46.78 30.16 45.11 28.65 43.44 C 26.81 43.43 24.98 43.43 23.15 43.42 C 23.16 42.46 23.17 40.53 23.18 39.57 C 26.06 39.56 29.00 39.27 31.85 39.89 C 33.14 41.31 34.10 42.98 35.29 44.49 C 36.49 44.02 37.51 43.29 38.36 42.29 C 36.22 40.91 34.15 39.42 32.29 37.67 C 28.68 37.64 25.06 37.67 21.44 37.66 C 21.41 38.47 21.33 40.09 21.30 40.90 C 19.35 40.48 17.41 40.03 15.48 39.57 C 15.29 40.20 14.92 41.47 14.73 42.11 C 16.31 44.21 19.16 42.25 21.32 42.26 C 21.34 43.03 21.39 44.57 21.42 45.34 C 23.52 45.33 25.62 45.32 27.72 45.31 C 28.85 46.53 29.98 47.76 31.12 48.99 C 28.87 49.09 26.63 49.16 24.38 49.23 C 24.10 49.73 23.55 50.74 23.28 51.24 C 22.71 51.16 21.57 51.01 21.00 50.94 C 20.92 50.30 20.75 49.02 20.67 48.38 C 13.22 45.83 7.41 39.41 5.97 31.61 C 7.63 31.70 9.29 31.78 10.95 31.87 C 10.86 33.43 10.78 34.99 10.69 36.54 C 13.57 36.57 16.45 36.60 19.32 36.62 C 19.25 32.38 19.64 28.12 19.16 23.89 C 17.48 20.68 14.31 18.61 12.13 15.77 C 10.96 14.84 11.70 13.36 11.70 12.15 C 15.00 15.29 18.42 18.44 21.00 22.22 C 21.84 26.65 21.20 31.22 21.34 35.71 C 26.13 35.69 31.03 35.35 35.65 36.87 C 36.18 35.63 37.48 34.18 35.88 33.14 C 31.67 33.71 27.43 34.11 23.18 33.87 C 22.76 28.65 24.93 22.31 20.43 18.35 C 21.74 17.29 23.00 16.09 24.59 15.44 C 25.77 16.83 26.80 18.34 28.05 19.67 C 29.24 19.04 29.74 17.84 30.19 16.66 C 28.50 15.57 25.96 15.00 25.31 12.83 C 25.01 10.85 25.09 8.84 25.04 6.85 C 26.64 6.90 28.24 6.96 29.84 7.02 C 30.06 6.45 30.51 5.31 30.73 4.74 Z" />
<path fill="#ccf7ff" opacity="1.00" d=" M 13.80 11.17 C 16.79 9.41 19.93 7.88 23.34 7.14 C 23.33 9.12 23.41 11.12 23.17 13.09 C 22.30 14.83 20.53 15.88 19.13 17.16 C 17.25 15.25 15.45 13.28 13.80 11.17 Z" />
<path fill="#ccf7ff" opacity="1.00" d=" M 39.72 11.12 C 41.71 12.90 43.95 14.63 44.93 17.21 C 44.32 17.31 43.10 17.51 42.49 17.61 C 42.62 20.81 42.44 24.01 41.83 27.16 C 40.92 29.33 44.94 29.79 45.19 27.88 C 44.77 25.09 44.29 22.30 44.44 19.46 C 44.95 19.47 45.98 19.49 46.49 19.49 C 49.49 26.68 48.34 35.10 43.72 41.33 C 41.74 39.61 40.07 37.45 40.55 34.65 C 41.73 35.14 42.91 35.63 44.09 36.13 C 44.94 34.92 45.91 33.62 44.91 32.15 C 43.49 31.66 42.15 32.47 40.85 32.92 C 41.09 29.98 39.14 27.89 37.20 25.99 C 37.84 25.65 39.10 24.96 39.73 24.62 C 39.66 20.12 39.64 15.62 39.72 11.12 Z" />
<path fill="#ccf7ff" opacity="1.00" d=" M 5.61 30.26 C 5.50 25.14 6.69 19.95 9.74 15.76 C 10.89 16.95 12.04 18.14 13.19 19.32 C 12.43 20.55 11.66 21.78 10.87 22.99 C 8.74 23.27 7.83 24.85 8.16 26.90 C 11.84 27.43 12.40 23.06 14.19 20.82 C 15.31 21.88 16.43 22.93 17.54 24.01 C 17.55 27.62 17.55 31.22 17.50 34.83 C 15.86 34.83 14.22 34.83 12.58 34.84 C 12.59 33.27 12.61 31.70 12.62 30.13 C 10.29 30.17 7.95 30.21 5.61 30.26 Z" />
</g>
</svg>
